<?xml version="1.0" encoding="UTF-8"?>
<svg width="100" height="100" version="1.1" viewBox="0 0 200 100" xmlns="http://www.w3.org/2000/svg">
 <circle cx="100" cy="50" r="100" fill="#fff" stroke-width="1.5118"/>
 <path d="m54.682 0.85895c18.343 13.687 38.075 41.435 45.318 56.326v39.331c0-0.83702-0.325 0.10896-1.025 2.1471-3.78 11.035-18.545 54.102-52.308 19.673-17.777-18.127-9.5475-36.255 22.813-41.728-18.513 3.1302-39.325-2.043-45.035-22.325-1.645-5.8344-4.445-41.772-4.445-46.626 0-24.314 21.447-16.671 34.682-6.7978zm90.635 0c-18.342 13.687-38.075 41.435-45.317 56.326v39.331c0-0.83702 0.32499 0.10896 1.025 2.1471 3.78 11.035 18.545 54.102 52.308 19.673 17.778-18.127 9.5475-36.255-22.812-41.728 18.512 3.1302 39.325-2.043 45.035-22.325 1.645-5.8344 4.445-41.772 4.445-46.626 0-24.314-21.445-16.671-34.683-6.7978z" color="#ffffff" fill="#006aff" stroke-width="2.4882"/>
</svg>
