<?xml version="1.0" encoding="UTF-8"?>
<svg width="57.322mm" height="61.169mm" version="1.1" viewBox="0 0 57.322 61.169" xmlns="http://www.w3.org/2000/svg">
 <g transform="translate(-25.147 -22.216)">
  <path d="m44.239 22.216-3.8231 0.95576v2.8673h3.8231zm0 3.8231v3.8231h-3.8231v-3.8231c-4.8094 0.05735-8.3304-0.11469-11.205 1.4719-1.4413 0.7952-2.5844 2.1409-3.2114 3.8154-0.6308 1.6783-0.85254 3.6701-0.85254 6.1819v30.584c0 2.5156 0.22174 4.5074 0.85254 6.1819 0.62698 1.6821 1.7701 3.0164 3.2114 3.8116 2.8749 1.5866 6.396 1.4222 11.205 1.4757h11.484v-3.8231h-11.484c-4.817-0.053523-7.9787-0.22938-9.378-0.99782-0.69962-0.38995-1.1087-0.81431-1.4795-1.8083-0.37466-0.99399-0.61169-2.5729-0.61169-4.84v-19.115c0-2.2632 0.24085-3.8422 0.61169-4.8362 0.37466-0.99399 0.7799-1.4222 1.4795-1.8083 1.4031-0.77226 4.5686-0.94429 9.4009-1.0016h22.915c4.817 0.05735 7.9787 0.22938 9.378 1.0016 0.70344 0.38613 1.1087 0.81431 1.4795 1.8083 0.37466 0.994 0.61169 4.8362 0.61169 4.8362v7.6461h3.8231v-19.115c0-2.5117-0.22938-4.5036-0.86019-6.1819a7.1873 7.1873 0 0 0-3.1999-3.8154c-2.8788-1.5866-6.3998-1.4145-11.209-1.4719v3.8231h-3.8231v-3.8231zm15.292 0h3.8231v-3.8231l-3.8231 0.95576z" color="#000000" fill="#808080" font-family="sans-serif" font-weight="400" overflow="visible" stroke-width="3.823" style="isolation:auto;mix-blend-mode:normal;text-decoration-color:#000000;text-decoration-line:none;text-decoration-style:solid;text-indent:0;text-transform:none" white-space="normal"/>
  <path class="warning" d="m69.013 59.41a1.6936 1.6936 0 0 0-1.3763 0.84107l-11.702 20.633a1.6707 1.6707 0 0 0 1.4489 2.5003h23.416a1.6707 1.6707 0 0 0 1.4489-2.5003l-11.695-20.633a1.6898 1.6898 0 0 0-1.5369-0.84107zm-1.8351 4.8591h3.8231v0.64227c0 1.3342-0.06117 2.5538-0.17968 3.6587-0.11469 1.1087-0.26379 2.2212-0.43965 3.3452h-2.5462a49.31 49.31 0 0 1-0.47788-3.3452 34.966 34.966 0 0 1-0.17968-3.6587zm1.9115 11.469a1.9115 1.9115 0 1 1 0 3.8231 1.9115 1.9115 0 0 1 0-3.8231z" color="#000000" fill="#f00" fill-rule="evenodd" font-family="sans-serif" font-weight="400" overflow="visible" stroke-width="3.823" style="isolation:auto;mix-blend-mode:normal;text-decoration-color:#000000;text-decoration-line:none;text-decoration-style:solid;text-indent:0;text-transform:none" white-space="normal"/>
  <g fill="#808080" stroke-width=".35034px" aria-label="COMING
SOON">
   <path d="m35.768 53.76 1.811 0.54741q-0.18247 0.76181-0.57478 1.2727-0.39231 0.51091-0.97621 0.77093-0.57934 0.26002-1.478 0.26002-1.0902 0-1.7836-0.31476-0.68882-0.31932-1.1906-1.1176t-0.50179-2.0436q0-1.6605 0.88041-2.55 0.88497-0.8941 2.4998-0.8941 1.2636 0 1.9843 0.51091 0.72531 0.51091 1.0766 1.5692l-1.8247 0.40599q-0.0958-0.30564-0.20072-0.44705-0.17334-0.23721-0.42424-0.36494-0.2509-0.12773-0.56109-0.12773-0.7025 0-1.0766 0.56565-0.28283 0.41968-0.28283 1.3183 0 1.1131 0.33757 1.5282 0.33757 0.41056 0.94884 0.41056 0.59302 0 0.8941-0.33301 0.30564-0.333 0.44249-0.96708zm2.5546-0.60671q0-1.6377 0.91234-2.55 0.91234-0.91234 2.5409-0.91234 1.6696 0 2.5728 0.89866 0.90322 0.8941 0.90322 2.5089 0 1.1724-0.39687 1.925-0.39231 0.74812-1.1404 1.1678-0.74356 0.41512-1.8566 0.41512-1.1313 0-1.8749-0.36038-0.739-0.36038-1.1997-1.1404t-0.46073-1.9524zm2.0665 0.0091q0 1.0127 0.37406 1.4552 0.37862 0.44249 1.0264 0.44249 0.66601 0 1.0309-0.43336 0.36494-0.43336 0.36494-1.5555 0-0.94428-0.38318-1.3776-0.37862-0.43792-1.0309-0.43792-0.62496 0-1.0036 0.44249-0.37862 0.44249-0.37862 1.4643zm5.953-3.3574h2.7188l1.0492 4.0691 1.0446-4.0691h2.7097v6.6875h-1.6878v-5.1l-1.3092 5.1h-1.5282l-1.3047-5.1v5.1h-1.6924zm8.9227 0h2.071v6.6875h-2.071zm3.5673 0h1.9296l2.5181 3.6996v-3.6996h1.9479v6.6875h-1.9479l-2.5044-3.6722v3.6722h-1.9433zm11.131 4.2652v-1.3913h3.1932v2.8511q-0.9169 0.62496-1.624 0.85304-0.7025 0.22352-1.6696 0.22352-1.1906 0-1.9433-0.40599-0.74812-0.40599-1.1632-1.2089-0.41055-0.80286-0.41055-1.8429 0-1.0948 0.45161-1.9022 0.45161-0.81199 1.3229-1.2317 0.6797-0.32388 1.8292-0.32388 1.1085 0 1.6559 0.20072 0.55197 0.20072 0.91234 0.62496 0.36494 0.41968 0.54741 1.0674l-1.9935 0.35581q-0.12317-0.37862-0.41968-0.57934-0.29195-0.20072-0.74812-0.20072-0.6797 0-1.0857 0.47442-0.40143 0.46986-0.40143 1.4917 0 1.0857 0.40599 1.551 0.41055 0.4653 1.1404 0.4653 0.34669 0 0.66145-0.10036 0.31476-0.10036 0.72075-0.34213v-0.62952z"/>
   <path d="m30.955 63.623 1.9661-0.12317q0.06386 0.47898 0.26002 0.72988 0.31932 0.40599 0.91234 0.40599 0.44249 0 0.6797-0.20528 0.24177-0.20984 0.24177-0.48354 0-0.26002-0.22809-0.4653t-1.0583-0.38775q-1.3594-0.30564-1.9387-0.81199-0.5839-0.50635-0.5839-1.291 0-0.51548 0.29651-0.97165 0.30107-0.46073 0.89866-0.72075 0.60215-0.26458 1.6468-0.26458 1.2818 0 1.9524 0.47898 0.67513 0.47442 0.80286 1.5145l-1.9479 0.11404q-0.07755-0.45161-0.32844-0.65689-0.24633-0.20528-0.68426-0.20528-0.36038 0-0.54284 0.1551-0.18247 0.15054-0.18247 0.3695 0 0.15966 0.15054 0.28739 0.14598 0.13229 0.69338 0.24633 1.3548 0.29195 1.9387 0.59302 0.58846 0.29651 0.85304 0.739 0.26914 0.44249 0.26914 0.98989 0 0.6432-0.35581 1.186-0.35581 0.54284-0.99446 0.82567-0.63864 0.27826-1.6103 0.27826-1.7061 0-2.363-0.65689-0.65689-0.65689-0.74356-1.6696zm6.8471-1.1267q0-1.6377 0.91234-2.55 0.91234-0.91234 2.5409-0.91234 1.6696 0 2.5728 0.89866 0.90322 0.8941 0.90322 2.5089 0 1.1724-0.39687 1.925-0.39231 0.74812-1.1404 1.1678-0.74356 0.41512-1.8566 0.41512-1.1313 0-1.8749-0.36038-0.739-0.36038-1.1997-1.1404-0.46073-0.78005-0.46073-1.9524zm2.0665 0.0091q0 1.0127 0.37406 1.4552 0.37862 0.44249 1.0264 0.44249 0.66601 0 1.0309-0.43336 0.36494-0.43336 0.36494-1.5555 0-0.94428-0.38318-1.3776-0.37862-0.43792-1.0309-0.43792-0.62496 0-1.0036 0.44249-0.37862 0.44249-0.37862 1.4643zm5.7158-0.0091q0-1.6377 0.91234-2.55 0.91234-0.91234 2.5409-0.91234 1.6696 0 2.5728 0.89866 0.90322 0.8941 0.90322 2.5089 0 1.1724-0.39687 1.925-0.39231 0.74812-1.1404 1.1678-0.74356 0.41512-1.8566 0.41512-1.1313 0-1.8749-0.36038-0.739-0.36038-1.1997-1.1404-0.46073-0.78005-0.46073-1.9524zm2.0665 0.0091q0 1.0127 0.37406 1.4552 0.37862 0.44249 1.0264 0.44249 0.66601 0 1.0309-0.43336 0.36494-0.43336 0.36494-1.5555 0-0.94428-0.38318-1.3776-0.37862-0.43792-1.0309-0.43792-0.62496 0-1.0036 0.44249-0.37862 0.44249-0.37862 1.4643zm5.9895-3.3574h1.9296l2.5181 3.6996v-3.6996h1.9479v6.6875h-1.9479l-2.5044-3.6722v3.6722h-1.9433z"/>
  </g>
 </g>
</svg>
