<svg xmlns="http://www.w3.org/2000/svg" version="1.1" width="1024" height="576">
<rect x="0" y="0" width="1024" height="576" fill="#bdc2c9" />
<g transform="scale(4.000000) translate(0.5 0.5)">
<rect fill="#0b0087" fill-opacity="0.501961" x="88" y="74" width="25" height="55" />
<rect fill="#ffffff" fill-opacity="0.501961" x="177" y="0" width="79" height="71" />
<rect fill="#0b89c7" fill-opacity="0.501961" x="136" y="17" width="42" height="56" />
<rect fill="#f8ffff" fill-opacity="0.501961" x="88" y="0" width="66" height="40" />
<rect fill="#654d6d" fill-opacity="0.501961" x="97" y="103" width="51" height="27" />
<rect fill="#9c9791" fill-opacity="0.501961" x="0" y="50" width="89" height="58" />
<rect fill="#384581" fill-opacity="0.501961" x="135" y="41" width="31" height="33" />
<rect fill="#daf5ff" fill-opacity="0.501961" x="105" y="12" width="31" height="70" />
<rect fill="#ffffff" fill-opacity="0.501961" x="196" y="0" width="60" height="57" />
<rect fill="#e4bf27" fill-opacity="0.501961" x="112" y="97" width="20" height="22" />
<rect fill="#fff814" fill-opacity="0.501961" x="145" y="52" width="13" height="11" />
<rect fill="#ede8e2" fill-opacity="0.501961" x="0" y="110" width="89" height="27" />
<rect fill="#ffffff" fill-opacity="0.501961" x="153" y="0" width="103" height="18" />
<rect fill="#b4b0aa" fill-opacity="0.501961" x="177" y="49" width="39" height="53" />
<rect fill="#3081e9" fill-opacity="0.501961" x="117" y="49" width="10" height="21" />
<rect fill="#ffffff" fill-opacity="0.501961" x="133" y="86" width="43" height="10" />
<rect fill="#ebe6df" fill-opacity="0.501961" x="158" y="101" width="98" height="22" />
<rect fill="#1e56be" fill-opacity="0.501961" x="124" y="65" width="41" height="8" />
<rect fill="#4edafa" fill-opacity="0.501961" x="142" y="16" width="34" height="23" />
<rect fill="#5347a9" fill-opacity="0.501961" x="88" y="62" width="18" height="62" />
<rect fill="#ffffff" fill-opacity="0.501961" x="232" y="0" width="24" height="82" />
<rect fill="#362eb3" fill-opacity="0.501961" x="96" y="118" width="37" height="10" />
<rect fill="#ffffff" fill-opacity="0.501961" x="97" y="15" width="27" height="37" />
<rect fill="#acaab5" fill-opacity="0.501961" x="134" y="96" width="28" height="48" />
<rect fill="#8192ca" fill-opacity="0.501961" x="97" y="81" width="69" height="6" />
<rect fill="#ffffff" fill-opacity="0.501961" x="122" y="74" width="43" height="6" />
<rect fill="#a19e9a" fill-opacity="0.501961" x="177" y="87" width="79" height="12" />
<rect fill="#a8e3e8" fill-opacity="0.501961" x="167" y="48" width="11" height="43" />
<rect fill="#b4b0a9" fill-opacity="0.501961" x="119" y="129" width="137" height="15" />
<rect fill="#bbafda" fill-opacity="0.501961" x="109" y="65" width="11" height="43" />
<rect fill="#bdbab7" fill-opacity="0.501961" x="0" y="25" width="89" height="45" />
<rect fill="#649ce6" fill-opacity="0.501961" x="122" y="41" width="15" height="8" />
<rect fill="#615f59" fill-opacity="0.501961" x="136" y="97" width="37" height="2" />
<rect fill="#a097ca" fill-opacity="0.501961" x="89" y="50" width="17" height="30" />
<rect fill="#d5d0ca" fill-opacity="0.501961" x="6" y="0" width="137" height="15" />
<rect fill="#52545a" fill-opacity="0.501961" x="136" y="111" width="24" height="3" />
<rect fill="#ffffff" fill-opacity="0.501961" x="105" y="20" width="11" height="48" />
<rect fill="#9c9b9b" fill-opacity="0.501961" x="0" y="88" width="56" height="21" />
<rect fill="#316ce4" fill-opacity="0.501961" x="136" y="42" width="12" height="15" />
<rect fill="#ffe700" fill-opacity="0.501961" x="130" y="99" width="3" height="15" />
<rect fill="#dbdbda" fill-opacity="0.501961" x="177" y="35" width="41" height="28" />
<rect fill="#5d5f5d" fill-opacity="0.501961" x="136" y="104" width="25" height="3" />
<rect fill="#fff200" fill-opacity="0.501961" x="147" y="55" width="10" height="5" />
<rect fill="#342d50" fill-opacity="0.501961" x="119" y="109" width="10" height="4" />
<rect fill="#ffb004" fill-opacity="0.501961" x="117" y="113" width="12" height="6" />
<rect fill="#a8f1ff" fill-opacity="0.501961" x="130" y="15" width="18" height="24" />
<rect fill="#1445a3" fill-opacity="0.501961" x="139" y="40" width="26" height="7" />
<rect fill="#f7f6f3" fill-opacity="0.501961" x="143" y="100" width="31" height="4" />
<rect fill="#443b9f" fill-opacity="0.501961" x="89" y="96" width="22" height="28" />
<rect fill="#ffffff" fill-opacity="0.501961" x="126" y="49" width="9" height="13" />
<rect fill="#cfcec9" fill-opacity="0.501961" x="0" y="127" width="98" height="15" />
<rect fill="#ffffff" fill-opacity="0.501961" x="210" y="0" width="46" height="44" />
<rect fill="#8f8ce1" fill-opacity="0.501961" x="128" y="116" width="20" height="10" />
<rect fill="#efeff8" fill-opacity="0.501961" x="139" y="108" width="34" height="3" />
<rect fill="#8a86c9" fill-opacity="0.501961" x="105" y="82" width="19" height="14" />
<rect fill="#43589b" fill-opacity="0.501961" x="116" y="102" width="9" height="4" />
<rect fill="#ffff9c" fill-opacity="0.501961" x="111" y="102" width="4" height="9" />
<rect fill="#5b85dd" fill-opacity="0.501961" x="156" y="57" width="4" height="12" />
<rect fill="#dfdded" fill-opacity="0.501961" x="143" y="115" width="31" height="7" />
<rect fill="#3abade" fill-opacity="0.501961" x="166" y="19" width="11" height="34" />
<rect fill="#fae805" fill-opacity="0.501961" x="144" y="62" width="3" height="5" />
<rect fill="#dddddb" fill-opacity="0.501961" x="47" y="107" width="41" height="17" />
<rect fill="#4c45a2" fill-opacity="0.501961" x="102" y="115" width="13" height="16" />
<rect fill="#aadaff" fill-opacity="0.501961" x="145" y="48" width="3" height="10" />
<rect fill="#2146a8" fill-opacity="0.501961" x="149" y="60" width="4" height="14" />
<rect fill="#d0cecb" fill-opacity="0.501961" x="204" y="64" width="38" height="18" />
<rect fill="#ffffff" fill-opacity="0.501961" x="106" y="31" width="34" height="10" />
<rect fill="#ffffff" fill-opacity="0.501961" x="142" y="86" width="12" height="11" />
<rect fill="#ffffff" fill-opacity="0.501961" x="133" y="75" width="24" height="6" />
<rect fill="#c2c0bd" fill-opacity="0.501961" x="172" y="118" width="84" height="13" />
<rect fill="#e0dfde" fill-opacity="0.501961" x="223" y="98" width="33" height="12" />
<rect fill="#646464" fill-opacity="0.501961" x="136" y="99" width="16" height="2" />
<rect fill="#94bee8" fill-opacity="0.501961" x="120" y="45" width="10" height="6" />
<rect fill="#ffff87" fill-opacity="0.501961" x="116" y="97" width="11" height="4" />
<rect fill="#1f4cae" fill-opacity="0.501961" x="160" y="46" width="7" height="18" />
</g>
</svg>